<svg width="14" height="19" viewBox="0 0 14 19" fill="none" xmlns="http://www.w3.org/2000/svg">
<path d="M12.4999 7.50004V9.16671C12.4999 10.7138 11.8853 12.1975 10.7914 13.2915C9.69741 14.3855 8.21368 15 6.66659 15M6.66659 15C5.11949 15 3.63576 14.3855 2.5418 13.2915C1.44783 12.1975 0.833252 10.7138 0.833252 9.16671V7.50004M6.66659 15V17.5M6.66659 0.833374C6.00354 0.833374 5.36766 1.09677 4.89882 1.56561C4.42998 2.03445 4.16659 2.67033 4.16659 3.33337V9.16671C4.16659 9.82975 4.42998 10.4656 4.89882 10.9345C5.36766 11.4033 6.00354 11.6667 6.66659 11.6667C7.32963 11.6667 7.96551 11.4033 8.43435 10.9345C8.90319 10.4656 9.16659 9.82975 9.16659 9.16671V3.33337C9.16659 2.67033 8.90319 2.03445 8.43435 1.56561C7.96551 1.09677 7.32963 0.833374 6.66659 0.833374Z" stroke="white" stroke-width="1.66667" stroke-linecap="round" stroke-linejoin="round"/>
</svg>
