<svg width="19" height="12" viewBox="0 0 19 12" fill="none" xmlns="http://www.w3.org/2000/svg">
<path d="M12.4999 6.66671L16.8524 9.56837C16.9152 9.61013 16.9881 9.63408 17.0633 9.63768C17.1386 9.64128 17.2135 9.6244 17.2799 9.58882C17.3464 9.55325 17.4019 9.50032 17.4407 9.43567C17.4794 9.37102 17.4999 9.29708 17.4999 9.22171V2.39171C17.4999 2.31839 17.4806 2.24637 17.4439 2.18291C17.4072 2.11946 17.3544 2.06681 17.2908 2.03029C17.2272 1.99377 17.1552 1.97467 17.0818 1.97492C17.0085 1.97517 16.9366 1.99476 16.8733 2.03171L12.4999 4.58337M2.49992 0.833374H10.8333C11.7537 0.833374 12.4999 1.57957 12.4999 2.50004V9.16671C12.4999 10.0872 11.7537 10.8334 10.8333 10.8334H2.49992C1.57944 10.8334 0.833252 10.0872 0.833252 9.16671V2.50004C0.833252 1.57957 1.57944 0.833374 2.49992 0.833374Z" stroke="white" stroke-width="1.66667" stroke-linecap="round" stroke-linejoin="round"/>
</svg>
